<svg xmlns="http://www.w3.org/2000/svg" fill="none" viewBox="0 0 480 480"><defs/><g clip-path="url(#clip0)" opacity=".15"><path fill="url(#paint0_linear)" d="M240.32 0C107.52 0 0 107.52 0 240.32S107.52 480 240.32 480A239.13 239.13 0 00480 240.32C480 107.52 373.12 0 240.32 0z"/><path fill="#fff" d="M288.96 39.68c.96 1.28-.32 2.56-.96 3.52-2.88 3.52-1.6 8.64-.32 13.12.32 1.28.64 2.56.96 3.52 1.28 6.72-1.92 14.4-8.32 20.48-4.48 4.16-4.48 10.24.32 17.28 6.72 9.92 7.04 24.64 3.52 33.92-3.52 9.92-12.8 19.84-24.96 17.28-4.48-.96-8.32-3.84-10.88-8-2.24-3.84-3.52-8.64-3.52-14.08a39 39 0 012.24-13.12c3.52-11.2 8.64-15.68 12.16-18.88 1.28-1.28 2.56-2.24 3.52-3.52 1.6-2.24 2.24-4.48 3.2-7.36 1.28-4.16 2.56-8.64 7.36-11.84 5.44-3.84 8-8 5.76-19.52-1.28-5.76 5.76-12.48 7.68-13.44.64-.32 1.92 0 2.24.64zm-6.72 12.16c2.24 11.52.32 17.6-7.04 22.72-3.84 2.56-4.8 6.4-6.08 10.24-.96 2.88-1.6 5.76-3.52 8.32-.96 1.6-2.56 2.88-3.84 4.16-3.52 3.2-8 7.04-11.2 17.28-2.88 9.28-2.56 18.56.96 24.64a13.86 13.86 0 008.64 6.72c10.24 2.24 18.24-6.4 21.44-15.04a35.92 35.92 0 001.92-12.16c0-6.4-1.6-13.44-5.12-18.88-8-11.84-2.56-18.88 0-21.44 5.76-5.12 8.32-11.84 7.36-17.6a11.5 11.5 0 01-.64-3.52c-.64-2.88-1.6-6.08-1.28-8.96-1.6.96-1.92 2.24-1.6 3.52zM331.84 367.04a144.4 144.4 0 01-13.76 99.2l-3.84 7.36-5.44 2.88 6.72-11.52c16-29.76 20.48-64 13.44-96.96C312 291.52 236.8 243.52 160.64 260.16A141.6 141.6 0 0050.56 383.04l-.96 12.8-2.56-8.96.32-4.16c6.72-61.76 51.84-112.32 112.32-125.44 78.08-17.28 155.2 32 172.16 109.76z"/><path fill="#fff" d="M157.44 353.28a43.8 43.8 0 01-1.28-10.88c0-23.36 16.32-44.48 40-49.6a50.6 50.6 0 0160.48 38.72 43.8 43.8 0 011.28 10.88c0 23.36-16.32 44.48-40 49.6-27.52 6.08-54.4-11.52-60.48-38.72zm59.84 35.52c21.76-4.8 37.44-24.32 37.44-46.4 0-3.52-.32-7.04-1.28-10.24-5.76-25.6-31.04-41.92-56.64-36.16-21.76 4.8-37.44 24.32-37.44 46.4 0 3.52.32 7.04 1.28 10.24 5.44 25.6 31.04 41.92 56.64 36.16zM272 195.2l-18.88 18.88L272 232.96c.64.64.64 1.6 0 2.24-.64.64-1.6.64-2.24 0l-18.88-18.88-18.24 18.24c-.64.64-1.6.64-2.24 0-.32-.32-.32-.64-.32-1.28s0-.96.32-1.28l18.24-18.24-18.24-18.24c-.32-.32-.32-.64-.32-1.28s0-.96.32-1.28c.64-.64 1.6-.64 2.24 0l18.24 18.24 18.88-18.88c.64-.64 1.6-.64 2.24 0 .64.64.64 2.24 0 2.88z"/></g><defs><linearGradient id="paint0_linear" x1="240" x2="240" y1="480" y2="0" gradientUnits="userSpaceOnUse"><stop stop-color="#A850CE"/><stop offset="1" stop-color="#FE8C8C"/></linearGradient><clipPath id="clip0"><path fill="#fff" d="M0 0h480v480H0z" transform="matrix(0 -1 -1 0 480 480)"/></clipPath></defs></svg>