<svg width="13" height="24" viewBox="0 0 13 24" fill="none" xmlns="http://www.w3.org/2000/svg">
<path d="M12.5116 0.00873959H9.39362C8.61158 -0.0354387 7.82915 0.0882397 7.09911 0.371429C6.36907 0.654618 5.70841 1.09073 5.16171 1.65034C4.61502 2.20994 4.195 2.88002 3.93001 3.61536C3.66502 4.3507 3.56122 5.13418 3.62561 5.91295V8.63465H0.490793C0.426342 8.63465 0.36252 8.64731 0.302974 8.67192C0.243429 8.69652 0.189325 8.73259 0.143751 8.77805C0.0981762 8.82352 0.0620242 8.87749 0.0373596 8.9369C0.012695 8.9963 0 9.05997 0 9.12427V13.0688C0 13.1987 0.0517091 13.3232 0.143751 13.415C0.235792 13.5068 0.360627 13.5584 0.490793 13.5584H3.62681V23.5104C3.62665 23.5747 3.63924 23.6385 3.66385 23.6979C3.68846 23.7574 3.7246 23.8114 3.77021 23.8569C3.81581 23.9024 3.86998 23.9385 3.9296 23.9631C3.98921 23.9876 4.05311 24.0002 4.1176 24H8.20754C8.27199 24 8.33581 23.9873 8.39535 23.9627C8.4549 23.9381 8.509 23.9021 8.55458 23.8566C8.60015 23.8111 8.6363 23.7572 8.66097 23.6978C8.68563 23.6383 8.69833 23.5747 8.69833 23.5104V13.5572H12.3648C12.4293 13.5574 12.4932 13.5448 12.5528 13.5203C12.6125 13.4957 12.6666 13.4597 12.7122 13.4142C12.7578 13.3687 12.794 13.3146 12.8186 13.2552C12.8432 13.1957 12.8558 13.1319 12.8556 13.0676V9.12907C12.8556 9.06477 12.8429 9.0011 12.8183 8.9417C12.7936 8.88229 12.7575 8.82832 12.7119 8.78285C12.6663 8.73739 12.6122 8.70132 12.5527 8.67672C12.4931 8.65211 12.4293 8.63945 12.3648 8.63945H8.69712V6.32697C8.69712 5.21813 8.96177 4.65531 10.4101 4.65531H12.5104C12.6403 4.65499 12.7649 4.60326 12.8567 4.51148C12.9484 4.41969 13 4.29534 13 4.16569V0.503157C13.0006 0.438658 12.9885 0.37467 12.9642 0.314869C12.94 0.255067 12.9042 0.200631 12.8588 0.154688C12.8134 0.108745 12.7594 0.0722005 12.6998 0.047154C12.6402 0.0221075 12.5762 0.00905266 12.5116 0.00873959Z" fill="#5A5C61" fill-opacity="0.5"/>
</svg>
