<svg width="25" height="25" viewBox="0 0 25 25" fill="none" xmlns="http://www.w3.org/2000/svg">
<path fill-rule="evenodd" clip-rule="evenodd" d="M12.5015 6.25078C11.2652 6.25078 10.0567 6.61738 9.02875 7.30422C8.00082 7.99106 7.19966 8.96729 6.72656 10.1095C6.25346 11.2516 6.12966 12.5084 6.37084 13.721C6.61203 14.9335 7.20736 16.0473 8.08154 16.9215C8.95573 17.7956 10.0695 18.3909 11.282 18.6321C12.4945 18.8733 13.7514 18.7495 14.8935 18.2764C16.0357 17.8033 17.0119 17.0022 17.6988 15.9742C18.3856 14.9463 18.7522 13.7378 18.7522 12.5015C18.7522 10.8437 18.0937 9.25383 16.9214 8.08159C15.7492 6.90935 14.1593 6.25078 12.5015 6.25078ZM12.5015 16.4069C11.7288 16.4069 10.9734 16.1778 10.3309 15.7485C9.68844 15.3192 9.18769 14.709 8.89198 13.9952C8.59628 13.2813 8.5189 12.4957 8.66965 11.7378C8.8204 10.98 9.19249 10.2839 9.73888 9.73747C10.2853 9.19108 10.9814 8.81898 11.7393 8.66824C12.4971 8.51749 13.2827 8.59484 13.9966 8.89055C14.7105 9.18625 15.3206 9.68701 15.7499 10.3295C16.1792 10.972 16.4084 11.7273 16.4084 12.5C16.4072 13.5359 15.9952 14.5289 15.2628 15.2613C14.5303 15.9938 13.5373 16.4058 12.5015 16.4069Z" fill="#5A5C61" fill-opacity="0.5"/>
<path d="M20.0511 5.78119C20.0511 6.24078 19.6785 6.61335 19.2189 6.61335C18.7593 6.61335 18.3868 6.24078 18.3868 5.78119C18.3868 5.3216 18.7593 4.94903 19.2189 4.94903C19.6785 4.94903 20.0511 5.3216 20.0511 5.78119Z" fill="#5A5C61" fill-opacity="0.5"/>
<path fill-rule="evenodd" clip-rule="evenodd" d="M17.1877 0H7.81232C5.74048 0.000389114 3.75361 0.823595 2.2886 2.2886C0.823595 3.75361 0.000389114 5.74048 0 7.81232V17.1877C0.000389114 19.2595 0.823595 21.2464 2.2886 22.7114C3.75361 24.1764 5.74048 24.9996 7.81232 25H17.1877C19.2595 24.9996 21.2464 24.1764 22.7114 22.7114C24.1764 21.2464 24.9996 19.2595 25 17.1877V7.81232C24.9996 5.74048 24.1764 3.75361 22.7114 2.2886C21.2464 0.823595 19.2595 0.000389114 17.1877 0ZM22.6562 17.1877C22.6546 18.6375 22.078 20.0276 21.0528 21.0528C20.0276 22.078 18.6375 22.6546 17.1877 22.6562H7.81232C6.36323 22.6534 4.97433 22.0763 3.95008 21.0512C2.92583 20.0261 2.3498 18.6368 2.34824 17.1877V7.81232C2.35096 6.36399 2.92751 4.97576 3.95163 3.95163C4.97576 2.92751 6.36399 2.35096 7.81232 2.34824H17.1877C18.6375 2.3498 20.0276 2.92644 21.0528 3.95164C22.078 4.97684 22.6546 6.36687 22.6562 7.81672V17.1877Z" fill="#5A5C61" fill-opacity="0.5"/>
</svg>
