<svg width="28" height="16" viewBox="0 0 28 16" fill="none" xmlns="http://www.w3.org/2000/svg">
<path d="M27.8554 14.4317C27.8272 14.3693 27.7956 14.3085 27.7608 14.2495C26.9957 13.0459 26.0569 11.9616 24.9747 11.0316L24.9454 11.0024L24.9321 10.993L24.9175 10.9784H24.8975C24.276 10.3863 23.8822 9.98734 23.7162 9.78168C23.5739 9.62454 23.4791 9.43034 23.4428 9.22159C23.4065 9.01284 23.4302 8.7981 23.5111 8.60224C23.8804 7.9223 24.3206 7.28315 24.8243 6.69544C25.2229 6.18129 25.539 5.76864 25.7725 5.45749C27.455 3.22447 28.1844 1.79725 27.9606 1.17584L27.874 1.03091C27.7518 0.906401 27.5942 0.822387 27.4226 0.790233C27.1176 0.714692 26.8003 0.702472 26.4903 0.75433L22.2899 0.783578C22.1937 0.759706 22.0929 0.762471 21.9982 0.791562L21.8091 0.835438L21.7358 0.871341L21.6772 0.915217C21.6151 0.956549 21.5606 1.00829 21.5161 1.06814C21.4554 1.14564 21.4065 1.23166 21.3709 1.32344C20.935 2.45366 20.4132 3.54899 19.8101 4.59983C19.4505 5.20175 19.1198 5.72343 18.8179 6.1649C18.5925 6.51039 18.339 6.83681 18.0601 7.14089C17.8875 7.32128 17.7024 7.48925 17.5061 7.64353C17.3409 7.77029 17.2144 7.82392 17.1265 7.80441L16.8788 7.74591C16.7412 7.65672 16.6284 7.53411 16.5512 7.38955C16.4603 7.2124 16.4034 7.01982 16.3834 6.82176C16.3541 6.59306 16.3372 6.39626 16.3328 6.23138C16.3283 6.06649 16.331 5.83335 16.3408 5.53195C16.3505 5.23055 16.3554 5.02666 16.3554 4.92029C16.3554 4.55152 16.3625 4.1526 16.3767 3.72355C16.3909 3.2945 16.4029 2.95233 16.4127 2.69703C16.4225 2.44438 16.4273 2.17844 16.4273 1.89921C16.4326 1.67646 16.4156 1.45375 16.3767 1.23435C16.3427 1.07414 16.2914 0.918084 16.2236 0.768949C16.1613 0.625271 16.0574 0.503478 15.9253 0.419236C15.7737 0.328443 15.6087 0.262039 15.4365 0.222447C14.7885 0.0927553 14.129 0.0294899 13.4681 0.0336308C12.2947 -0.0649387 11.1131 0.0536193 9.98282 0.383344C9.7733 0.49415 9.5856 0.641908 9.4288 0.81948C9.25123 1.03312 9.22681 1.14969 9.35555 1.16919C9.59364 1.18565 9.826 1.24954 10.039 1.35711C10.2519 1.46467 10.4411 1.61373 10.5954 1.79548L10.6833 1.971C10.7787 2.18328 10.8472 2.40663 10.8871 2.63585C10.9596 2.98636 11.0042 3.34207 11.0203 3.69962C11.0692 4.30543 11.0692 4.91418 11.0203 5.51999C10.9715 6.02528 10.9271 6.41843 10.8871 6.69944C10.8565 6.93634 10.79 7.16724 10.69 7.38424C10.6387 7.49462 10.5804 7.60164 10.5155 7.70469C10.4965 7.7339 10.4715 7.75881 10.4423 7.77782C10.3149 7.82693 10.1793 7.85174 10.0428 7.85096C9.86112 7.83346 9.68874 7.76267 9.54733 7.64751C9.32431 7.48495 9.12136 7.29659 8.9427 7.08637C8.68018 6.77372 8.44367 6.44019 8.23552 6.08909C7.96916 5.66182 7.69704 5.15697 7.41914 4.57456L7.18607 4.15172C7.04046 3.87958 6.84114 3.48421 6.5881 2.96562C6.33506 2.44704 6.1131 1.94441 5.92221 1.45774C5.85651 1.27016 5.73413 1.10754 5.57195 0.992338L5.4987 0.948462C5.42684 0.897116 5.34847 0.855528 5.26564 0.824796C5.15769 0.780804 5.0451 0.749134 4.93003 0.730388L0.934668 0.759646C0.784258 0.740946 0.631562 0.756082 0.487768 0.803938C0.343974 0.851795 0.212724 0.931159 0.103633 1.03622L0.0450348 1.12399C0.0107644 1.19655 -0.00436398 1.27664 0.00108583 1.35668C0.00651248 1.4938 0.0362734 1.62887 0.0889837 1.7556C0.672306 3.1243 1.30668 4.4447 1.99211 5.71678C2.67753 6.98886 3.27284 8.01274 3.77803 8.7884C4.28322 9.56495 4.79862 10.2981 5.32424 10.9877C5.84985 11.6774 6.19744 12.1206 6.36702 12.3174C6.53749 12.5116 6.67067 12.6574 6.76656 12.7549L7.13147 13.1046C7.45221 13.4097 7.79593 13.6898 8.15961 13.9423C8.64371 14.288 9.14511 14.6089 9.66186 14.9037C10.2657 15.241 10.9102 15.5002 11.5796 15.6749C12.2721 15.8701 12.9918 15.9513 13.7105 15.9156H15.3872C15.6756 15.9083 15.951 15.7941 16.1596 15.5952L16.2182 15.522C16.2677 15.4393 16.3045 15.3497 16.3275 15.2561C16.3624 15.126 16.3795 14.9918 16.3781 14.8572C16.3648 14.4785 16.3966 14.0995 16.4726 13.7283C16.5208 13.4661 16.6041 13.2116 16.7203 12.9716C16.8036 12.8143 16.909 12.6696 17.0333 12.5422C17.1064 12.4613 17.1897 12.3903 17.281 12.3307C17.3185 12.3113 17.3572 12.2945 17.3969 12.2802C17.5424 12.2495 17.6931 12.254 17.8365 12.2933C17.98 12.3326 18.1119 12.4057 18.2213 12.5063C18.5525 12.7489 18.8514 13.0326 19.1109 13.3506C19.3879 13.6857 19.7208 14.062 20.1097 14.4795C20.418 14.8233 20.7602 15.1352 21.1312 15.4103L21.4229 15.5845C21.6626 15.7204 21.9173 15.8279 22.182 15.905C22.4435 15.9982 22.7244 16.0234 22.9984 15.9781L26.7274 15.9196C27.0252 15.9357 27.322 15.8728 27.5877 15.7374C27.7565 15.6566 27.8873 15.5136 27.9526 15.3385C27.9921 15.1758 27.9949 15.0064 27.9606 14.8425C27.9416 14.702 27.9063 14.5641 27.8554 14.4317Z" fill="#5A5C61" fill-opacity="0.5"/>
</svg>
