<svg width="24" height="17" viewBox="0 0 24 17" fill="none" xmlns="http://www.w3.org/2000/svg">
<path d="M23.7688 3.40607C23.6983 2.61033 23.3531 1.86515 22.7937 1.30134C22.2343 0.737522 21.4965 0.391115 20.7099 0.322927C18.8287 0.164973 16.0405 0 12.6001 0C8.45713 0 5.32976 0.171275 3.30791 0.331889C2.51757 0.396138 1.77516 0.741207 1.21205 1.30604C0.648942 1.87088 0.301428 2.61906 0.231 3.41821C0.107232 4.73597 0 6.47632 0 8.55136C0 10.5748 0.106344 12.2843 0.229536 13.5857C0.300667 14.3842 0.648475 15.1315 1.21148 15.6955C1.77448 16.2595 2.51642 16.604 3.30614 16.668C5.32793 16.8286 8.45588 17 12.6001 17C16.0405 17 18.8287 16.835 20.7099 16.677C21.4965 16.6088 22.2343 16.2625 22.7937 15.6987C23.3531 15.1349 23.6983 14.3897 23.7688 13.5939C23.8926 12.2831 24 10.5544 24 8.5C24 6.44556 23.8926 4.71692 23.7688 3.40607ZM9.33113 12.0685V4.93148L16.2888 8.5L9.33113 12.0685Z" fill="#5A5C61" fill-opacity="0.5"/>
</svg>
